<?xml version="1.0" encoding="UTF-8"?>
<svg id="Camada_2" data-name="Camada 2" xmlns="http://www.w3.org/2000/svg" viewBox="0 0 519.06 896.4">
  <defs>
    <style>
      .cls-1 {
        fill: #32526d;
      }
    </style>
  </defs>
  <g id="Camada_1-2" data-name="Camada 1">
    <g>
      <path class="cls-1" d="M318.23,.29c-.39,.39-.4,1.03-.01,1.42l51.37,51.61h0v226.96l-52.35,52.15c-.39,.39-.39,1.02,0,1.41,.39,.39,1.02,.39,1.41,0l52.3-52.1c.12-.05,.24-.12,.34-.22l54.45-54.25V491.44L98.52,162.34c-.39-.39-1.02-.39-1.41,0-.39,.39-.39,1.02,0,1.41l60.43,60.77V491.92c0,.4,.24,.77,.62,.92,.12,.05,.25,.08,.38,.08,.26,0,.51-.1,.71-.29l65.09-64.84,63.4,64.46s0,0,0,0l1.28,1.29,.02,.02-99.03,98.64c-.39,.39-.39,1.02,0,1.42,.39,.39,1.02,.39,1.41,0l97.63-97.25v240.53L1.71,448.17c-.39-.39-1.02-.39-1.41,0-.39,.39-.39,1.02,0,1.41l43.97,44.18v244.02c0,.4,.24,.77,.62,.92,.12,.05,.25,.08,.38,.08,.26,0,.51-.1,.71-.29l59.32-59.1,36.54,37.16c-.07,.32,0,.66,.25,.9l22.14,22.25v123.45c0,.4,.24,.77,.62,.92,.12,.05,.25,.08,.38,.08,.26,0,.51-.1,.71-.29l29.71-29.6,30.28,30.78c.2,.2,.45,.3,.71,.3s.5-.09,.7-.29l31.23-30.56,61.31,61.61c.2,.2,.45,.29,.71,.29s.51-.1,.71-.29c.39-.39,.39-1.02,0-1.41l-31.03-31.18v-122.55l60.87,61.17c.2,.2,.45,.29,.71,.29s.51-.1,.71-.29c.39-.39,.39-1.02,0-1.41l-61.51-61.81v-243.33l32.72,32.88h0v199.91c0,.4,.24,.77,.62,.92,.12,.05,.25,.08,.38,.08,.26,0,.51-.1,.71-.29l48.49-48.31,49.41,50.23c.2,.2,.45,.3,.71,.3s.5-.09,.7-.29l50.95-49.86,43.35,43.56v-2.83l-226.27-227.38,67.5-66.07,65.46,65.83v132.61c0,.4,.25,.76,.62,.92,.12,.05,.25,.08,.38,.08,.26,0,.52-.11,.71-.3l91.6-91.26v-2.9l-75.82,75.51c-.09,.09-.16,.2-.21,.32l-15.28,15.22v-129.06c.12-.05,.23-.12,.33-.22,.39-.39,.39-1.02,0-1.41l-.25-.25V227.73l55.06,55.99c.19,.2,.45,.3,.71,.3,.11,0,.22-.02,.32-.06l35.14,35.37v-2.84l-33.64-33.85,33.64-32.93v-2.8l-35.05,34.3-1.3-1.3c-.27-.27-.66-.35-1-.24l-53.72-54.62h0s56.5-56.29,56.5-56.29h0s34.57,34.74,34.57,34.74v-2.83L319.64,.3c-.39-.39-1.02-.4-1.41-.01ZM46.26,495.78l119.73,120.32-61.07,60.84c-.15,.04-.3,.11-.42,.23-.12,.12-.2,.27-.24,.43l-58,57.78v-239.6Zm121.14,121.74l60.64,60.94-61.59,60.28-59.75-60.75,60.7-60.47Zm-1.19,124.2l59.48,59.77-30.54,30.42c-.1,.05-.19,.1-.27,.18-.09,.08-.15,.18-.19,.29l-28.48,28.37v-119.03Zm60.42,121.22l-29.59-30.08,30.06-29.95,30.03,30.18-30.5,29.85Zm11.57-72.49c.39,.39,1.02,.39,1.41,0l48.63-48.44v119.5l-120.58-121.17,61.78-60.47,58.91,59.2-50.16,49.96c-.39,.39-.39,1.02,0,1.41Zm236.09-110.71l-50.22,49.15-48.72-49.53,49.49-49.31h0s49.44,49.68,49.44,49.68h0Zm-50.85-51.1l-49.89,49.7c-.14,.05-.27,.12-.38,.23-.11,.11-.19,.25-.23,.39l-47.19,47.01v-195.5l97.69,98.17h0ZM159.54,226.53l131.36,132.11-66.92,66.67c-.16,.04-.32,.11-.44,.24-.13,.13-.2,.29-.25,.45l-63.75,63.51V226.53Zm131.83,266.55h0s-.79-.8-.79-.8l-.42-.43-64.41-65.49,66.56-66.31,66.57,66.96-67.51,66.07ZM371.59,55.33l111.48,112.02-56.63,56.42c-.11,.05-.22,.11-.31,.2l-.1,.09s0,0,0,0c-.08,.04-.16,.1-.23,.17s-.12,.14-.17,.22v.02s-.01,0-.01,0l-54.01,53.8V55.33Z"/>
      <path class="cls-1" d="M505.52,145.01c-.39,.39-.39,1.02,0,1.41,.39,.39,1.02,.4,1.41,.01l12.13-12.08v-2.83l-13.54,13.49Z"/>
    </g>
  </g>
</svg>