<?xml version="1.0" encoding="UTF-8"?>
<svg id="Camada_2" data-name="Camada 2" xmlns="http://www.w3.org/2000/svg" viewBox="0 0 528.08 896.4">
  <defs>
    <style>
      .cls-1 {
        fill: #32526d;
      }
    </style>
  </defs>
  <g id="Camada_1-2" data-name="Camada 1">
    <path class="cls-1" d="M527.79,339.46l-57.34-57.61V53.44c0-.4-.24-.77-.62-.92-.37-.15-.8-.07-1.09,.21l-92.64,92.27c-.39,.39-.39,1.02,0,1.41,.39,.39,1.02,.39,1.41,0l90.93-90.58v223.99L190.23,.29c-.39-.39-1.02-.39-1.41,0-.39,.39-.39,1.02,0,1.41l51.37,51.61v226.96l-52.35,52.15c-.39,.39-.39,1.02,0,1.41,.39,.39,1.02,.39,1.41,0l52.3-52.1c.13-.05,.24-.12,.34-.22l54.53-54.33V491.51l-.08-.08L0,193.41v2.83l28.12,28.28h0V491.92c0,.4,.24,.77,.62,.92,.12,.05,.25,.08,.38,.08,.26,0,.51-.1,.71-.29l65.09-64.84,63.42,64.49s0,.02,.02,.02l.68,.68,.58,.59-99.03,98.64c-.39,.39-.39,1.02,0,1.42s1.02,.39,1.41,0l97.63-97.25v240.53h0S0,576.5,0,576.5v2.84l36.58,36.76L0,652.54v2.82l37.99-37.84,60.64,60.93-61.59,60.29L0,701.08v2.86l12.4,12.61h0s.01,.02,.01,.02c-.06,.31,.01,.64,.26,.89l22.14,22.25v123.45c0,.4,.24,.77,.62,.92,.12,.05,.25,.08,.38,.08,.26,0,.51-.1,.71-.29l29.71-29.6,30.28,30.79c.2,.2,.45,.3,.71,.3s.5-.09,.7-.29l31.23-30.56,61.31,61.61c.2,.2,.45,.29,.71,.29s.51-.1,.71-.29c.39-.39,.39-1.02,0-1.41l-31.03-31.18v-122.55h0s60.87,61.17,60.87,61.17c.2,.2,.46,.29,.71,.29s.51-.09,.71-.29c.39-.39,.39-1.02,0-1.41l-61.51-61.81v-243.34l32.72,32.88v199.92c0,.4,.24,.77,.62,.92,.12,.05,.25,.08,.38,.08,.26,0,.51-.1,.71-.29l48.49-48.31,49.41,50.23c.2,.2,.45,.3,.71,.3s.5-.09,.7-.29l50.95-49.86,99.59,100.08c.2,.2,.45,.29,.71,.29s.51-.1,.71-.29c.39-.39,.39-1.02,0-1.41l-50.36-50.61v-200.68c0-.4-.24-.77-.62-.92-.37-.15-.8-.07-1.09,.21l-81.41,81.1c-.39,.39-.39,1.02,0,1.41s1.02,.39,1.41,0l79.71-79.4v196.26l-231.58-232.71,67.5-66.07h0s65.46,65.83,65.46,65.83l.91,.92c.2,.2,.45,.3,.71,.3,.13,0,.26-.03,.38-.07,.12-.06,.23-.13,.32-.22,.4-.39,.4-1.03,.01-1.42l-.25-.25V227.74l55.06,55.98c.2,.2,.45,.3,.71,.3s.5-.09,.7-.29l58.06-56.82,113.43,113.97c.2,.2,.45,.29,.71,.29s.51-.1,.71-.29c.39-.39,.39-1.02,0-1.41ZM65.75,831.9c-.1,.05-.19,.1-.27,.18-.09,.08-.15,.18-.2,.29l-28.48,28.37v-119.03l59.48,59.77-30.53,30.42Zm31.47,31.03l-29.59-30.08,30.06-29.95,30.03,30.18-30.51,29.85Zm11.57-72.49c.39,.39,1.02,.39,1.41,0l48.63-48.44v119.5l-120.59-121.18,61.79-60.47,58.91,59.2h0s-50.16,49.96-50.16,49.96c-.39,.39-.39,1.02,0,1.41Zm236.09-110.71l-50.22,49.15-48.72-49.53,49.49-49.31,49.44,49.69Zm-148.55-149.28l97.69,98.17-49.89,49.7c-.14,.05-.27,.12-.38,.23-.11,.11-.19,.25-.23,.39l-47.19,47.01v-195.5Zm-101.78-105.15c-.16,.04-.32,.11-.44,.24-.13,.13-.2,.29-.25,.45l-63.75,63.51V226.54l131.36,132.11-66.91,66.66Zm67.4,67.77l-1.5-1.5-64.13-65.21,66.56-66.3h0s66.58,66.95,66.58,66.95l-67.51,66.07ZM297.03,223.77c-.11,.05-.22,.11-.31,.2l-.15,.15c-.06,.04-.13,.07-.19,.12-.06,.06-.09,.13-.13,.19l-54.07,53.85V55.33l111.48,112.01-56.64,56.43Zm57.17,57.84l-55.62-56.56,56.5-56.29,56.46,56.73-57.34,56.11Z"/>
  </g>
</svg>