<?xml version="1.0" encoding="UTF-8"?>
<svg id="Camada_1" data-name="Camada 1" xmlns="http://www.w3.org/2000/svg" viewBox="0 0 512 512">
  <defs>
    <style>
      .cls-1 {
        fill: #fdfdfd;
        fill-rule: evenodd;
      }

      .cls-2 {
        fill: #1c3f5d;
      }
    </style>
  </defs>
  <rect class="cls-2" x="-15.12" y="-16.41" width="542.24" height="545.82"/>
  <path class="cls-1" d="M305.74,311.71l-52.9-52.61-53.27,53.23,52.86,52.81,53.31-53.43ZM141.2,146.39v214.01l106.48-107.09-2.59-2.55-103.89-104.38Zm134.02,89.82c-.52,.27-1.09,.41-1.68,.41-2.04,0-3.69-1.65-3.69-3.69,0-1.11,.5-2.16,1.36-2.86l94.09-94.27c.79-1.01,2.74-1.27,3.87-1.03,1.58,.33,2.54,1.5,2.77,3.08v.09s.01,229.88,.01,229.88l56.36,56.62c.88,.7,1.39,1.76,1.39,2.89,0,2.04-1.65,3.69-3.69,3.69-.65,0-1.28-.17-1.83-.48l-.09,.09-.64-.65s-.07-.07-.1-.1l-57.42-57.69h-1.33v-1.34l-53.67-53.93-54.71,54.84c-2.32,2.33-5.5,2.72-7.74,.11l-54.1-54.33-53.32,53.44c-1.92,2.06-6.02,2.46-7-.41l-.21-.03V138.99l-50.3-50.54c-.12-.1-.23-.21-.33-.33l-.02-.02-.04-.04c-.56-.67-.86-1.5-.86-2.37,0-2.04,1.65-3.69,3.69-3.69,1.11,0,2.16,.5,2.86,1.36L364.59,360.41v-101.02h.25v-10.96h-.25v-101.52l-89.23,89.44-.14-.15Z"/>
</svg>