<?xml version="1.0" encoding="UTF-8"?>
<svg id="Camada_2" data-name="Camada 2" xmlns="http://www.w3.org/2000/svg" viewBox="0 0 328.39 106.38">
  <defs>
    <style>
      .cls-1 {
        fill-rule: evenodd;
      }

      .cls-1, .cls-2 {
        fill: #fdfdfd;
      }
    </style>
  </defs>
  <g id="Camada_1-2" data-name="Camada 1">
    <g>
      <path class="cls-2" d="M213.94,37.23c.1,0,.19-.06,.27-.18l.4-.86c.06-.12,.08-.21,.08-.28,0-.14-.05-.22-.16-.29-1.03-.41-2.55-.63-4.54-.63s-3.49,.41-4.73,1.25c-1.25,.84-1.93,2.12-2.05,3.85-.09,1.25,.24,2.28,1,3.09,.76,.81,1.7,1.41,2.82,1.81,1.12,.4,2.23,.76,3.35,1.1,1.11,.36,2.04,.85,2.81,1.49,.77,.64,1.11,1.47,1.04,2.46-.07,.99-.27,1.55-.93,2.24-.67,.69-2.14,1.02-4.4,1.02-1.86,0-3.58-.33-5.14-1.01-.04-.02-.07-.03-.12-.03-.12,0-.22,.06-.29,.18l-.45,.98c-.05,.13-.07,.21-.08,.28,0,.14,.04,.23,.16,.29,1.64,.71,3.54,1.07,5.66,1.12,3.08,0,5.29-.78,6.23-2.01,.94-1.21,1.2-2.07,1.27-3.11,.09-1.3-.24-2.37-.99-3.21-.75-.84-1.68-1.45-2.8-1.87-1.12-.41-2.24-.79-3.35-1.15-1.13-.35-2.06-.84-2.83-1.45-.77-.6-1.11-1.38-1.05-2.31,.08-1.24,.55-2.09,1.41-2.53,.86-.44,2.13-.67,3.83-.67,.84,0,2.04,.14,3.57,.41m-25.63-2.04c-.26,0-.4,.13-.4,.37l-1.29,19.01c-.03,.26,.08,.38,.34,.38h10.44c.26,0,.39-.13,.41-.38l.07-1.06c.02-.26-.09-.38-.36-.38h-8.89l.47-6.99h7.3c.25,0,.37-.13,.39-.38l.07-1.07c.03-.24-.08-.37-.34-.37h-7.3l.5-7.31h8.89c.26,0,.39-.13,.41-.38l.07-1.07c.02-.24-.1-.37-.36-.37h-10.44Zm-11.89,1.82c3.49,0,5.12,1.65,4.9,4.98l-.05,.75c-.12,1.79-.86,3.16-1.63,3.83-.41,.33-.87,.6-1.42,.79-1.1,.4-1.73,.43-2.53,.43h-3.86l.73-10.79h3.86Zm-5.28-1.82c-.26,0-.4,.13-.4,.37l-1.29,19c-.03,.26,.08,.39,.34,.39h1.16c.26,0,.39-.13,.41-.39l.34-4.94h3.92c.69,0,1.27-.05,1.75-.13l1.98,5.1c.09,.23,.22,.36,.39,.36h1.24c.22,0,.36-.13,.37-.36l-2.13-5.63c1.64-.72,2.82-1.97,3.29-3.27,.23-.65,.38-1.13,.47-1.49,.07-.33,.12-.66,.15-.98l.1-1.53c.01-.21,.03-.43,.03-.66,0-.43-.15-1.47-.43-2.27-.29-.8-.95-1.82-1.87-2.45-.94-.61-2.5-1.11-4.38-1.11h-5.46Zm-10.42,.34c-.05-.23-.16-.36-.34-.34h-2.33c-.18-.02-.31,.11-.39,.34l-7.54,19.06c-.02,.23,.1,.36,.33,.36h1.25c.17,0,.3-.13,.42-.36l1.31-3.27,1.24-3.12,4.42-11.19,2.84,10.84h0l.04,.17,.18,.68h0l.47,1.82h0l.19,.72,.03,.12h0l.82,3.22c.09,.23,.21,.36,.37,.36h1.25c.23,0,.36-.13,.38-.36l-4.95-19.06Zm-21.67,17.68c-.76-.12-1.91-.57-2.61-1.3-.7-.72-1.23-2.17-1.11-3.96l.39-5.77c.12-1.79,.85-3.23,1.64-3.97,.41-.35,.87-.64,1.41-.87,1.06-.43,1.75-.52,2.55-.52s1.49,.09,2.49,.52c.49,.23,.91,.52,1.27,.87,.7,.74,1.23,2.17,1.11,3.97l-.39,5.77c-.06,.9-.25,1.7-.56,2.39-.64,1.39-1.42,2.02-2.48,2.45-1.53,.64-2.52,.6-3.72,.43Zm-1.09-17.55c-1,.44-1.73,.93-2.23,1.46-.49,.55-.9,1.23-1.22,2.02-.32,.79-.51,1.39-.57,1.78-.06,.4-.1,.81-.13,1.25l-.41,6.06c-.03,.4-.04,.78-.03,1.14,0,.38,.12,.95,.33,1.71,.21,.77,.53,1.41,.95,1.94,.42,.54,1.1,1.01,2.03,1.44,.93,.43,2.07,.64,3.4,.64s2.51-.21,3.5-.64c1-.43,1.73-.9,2.23-1.44,.49-.53,.9-1.18,1.21-1.94,.31-.76,.49-1.33,.54-1.71,.06-.37,.1-.75,.12-1.14l.41-6.06c.03-.44,.04-.86,.04-1.25,0-.39-.1-.98-.31-1.78-.21-.79-.53-1.47-.94-2.02-.42-.53-1.1-1.02-2.03-1.46-.93-.44-2.08-.66-3.41-.66s-2.5,.21-3.49,.66Zm-10.83,1.57c.1,0,.19-.06,.27-.18l.4-.86c.06-.12,.08-.21,.08-.28,0-.14-.05-.22-.16-.29-1.03-.41-2.55-.63-4.54-.63s-3.49,.41-4.73,1.25c-1.25,.84-1.93,2.12-2.05,3.85-.09,1.25,.24,2.28,1,3.09,.76,.81,1.7,1.41,2.82,1.81,1.12,.4,2.23,.76,3.35,1.1,1.11,.36,2.04,.85,2.81,1.49,.77,.64,1.11,1.47,1.04,2.46-.07,.99-.27,1.55-.93,2.24-.67,.69-2.14,1.02-4.4,1.02-1.86,0-3.58-.33-5.14-1.01-.04-.02-.07-.03-.12-.03-.12,0-.22,.06-.29,.18l-.45,.98c-.05,.13-.07,.21-.08,.28,0,.14,.04,.23,.16,.29,1.65,.71,3.54,1.07,5.66,1.12,3.08,0,5.29-.78,6.23-2.01,.94-1.21,1.2-2.07,1.27-3.11,.09-1.3-.24-2.37-.99-3.21-.75-.84-1.68-1.45-2.8-1.87-1.12-.41-2.24-.79-3.35-1.15-1.13-.35-2.06-.84-2.83-1.45-.77-.6-1.11-1.38-1.05-2.31,.08-1.24,.55-2.09,1.41-2.53,.86-.44,2.13-.67,3.83-.67,.84,0,2.04,.14,3.57,.41Zm-34.78,16.58c1.64,.84,3.62,1.28,5.96,1.32,2.56,0,4.56-.64,5.59-1.42,.52-.38,.94-.86,1.27-1.4,.67-1.09,.75-1.76,.8-2.6,.07-.97-.08-1.81-.44-2.52-.71-1.46-1.97-2.18-3.49-2.81-3.01-1.25-6.57-1.65-6.41-4.04,.06-.95,.45-1.59,1.14-1.93,.7-.32,1.73-.49,3.11-.49,1.03,0,2.05,.1,3.08,.3,.26,.08,.44,.11,.56,.11,.17-.02,.31-.09,.43-.26l.69-1.43c.08-.2,.12-.32,.12-.38,0-.2-.07-.34-.23-.4-1.26-.56-2.89-.86-4.89-.86s-3.6,.44-4.9,1.34c-1.3,.9-2.02,2.26-2.14,4.08-.07,1.04,.15,1.94,.63,2.7,.49,.75,1.14,1.32,1.92,1.68,.78,.39,1.65,.75,2.57,1.1,.93,.36,1.8,.66,2.59,.92,1.61,.52,2.75,1.52,2.65,2.91-.05,.75-.2,1.18-.73,1.7-.54,.52-1.74,.78-3.58,.78-1.91-.02-3.56-.34-4.91-.98-.13-.06-.24-.09-.31-.09-.17,.01-.32,.1-.43,.29l-.8,1.56c-.07,.17-.11,.31-.12,.38,0,.18,.09,.32,.26,.43Zm-12.71-1.76c-.41-.1-.84-.29-1.31-.56-.94-.54-1.54-1.86-1.42-3.69l.37-5.46c.12-1.83,.9-3.15,1.92-3.71,1.02-.55,1.8-.72,2.64-.72s1.6,.17,2.54,.72c.94,.55,1.56,1.87,1.44,3.71l-.37,5.46c-.12,1.83-.92,3.15-1.94,3.69-1.46,.78-2.63,.9-3.87,.56Zm-.32-16.68c-.82,.25-1.48,.54-2,.86-1.04,.67-1.85,1.81-2.26,2.67-.21,.43-.38,.9-.51,1.44-.13,.53-.2,.93-.24,1.18-.03,.26-.05,.54-.07,.86l-.38,5.67c-.02,.33-.03,.66-.02,.95,.01,.29,.06,.75,.14,1.38,.06,.63,.25,1.18,.54,1.67,.29,.5,.65,.99,1.12,1.5,.93,.99,2.72,1.59,5.04,1.59,1.15,0,2.18-.14,3.09-.43,.91-.27,1.62-.66,2.16-1.16,.54-.51,.99-1,1.34-1.5,.36-.49,.63-1.05,.77-1.67,.15-.63,.26-1.09,.31-1.38,.05-.29,.09-.61,.11-.95l.38-5.67c.02-.32,.04-.6,.04-.86,0-.25-.02-.64-.07-1.18-.11-1.08-.37-1.82-1.02-2.85-.65-1.02-1.53-1.63-3.09-2.12-.78-.24-1.68-.37-2.67-.37s-1.91,.13-2.72,.37Zm-18.42,7.25c.11-1.67,.71-2.88,1.8-3.61,1.08-.72,2.33-1.09,3.75-1.09,1.24-.02,2.38,.1,3.42,.33,.21,0,.37-.1,.47-.31l.41-1.97c.01-.21-.08-.37-.27-.44-1.43-.35-2.93-.53-4.48-.53-2.51,0-4.51,.81-5.65,1.83-.57,.51-1.04,1.1-1.41,1.79-.73,1.36-.97,2.35-1.04,3.34l-.42,6.22c-.07,1,.04,1.98,.58,3.32,.28,.69,.66,1.29,1.16,1.79,1,1.04,2.89,1.83,5.4,1.83,1.55,0,3.07-.18,4.55-.53,.2-.08,.32-.23,.33-.43l-.14-1.98c-.08-.21-.22-.32-.42-.32-1.07,.23-2.23,.36-3.47,.36-1.43,0-2.62-.37-3.6-1.1-.99-.72-1.43-1.93-1.31-3.6l.33-4.9Zm-13.36-4.39c2.87,0,4.21,1.36,4.01,4.09l-.04,.57c-.17,2.75-1.7,4.13-4.57,4.13h-2.98l.6-8.79h2.98Zm2.38,16.24c.11,.32,.35,.48,.69,.48h1.88c.29,0,.58-.25,.6-.57l-2.03-5.27c1.48-.79,2.51-2.1,2.94-3.38,.21-.63,.33-1.12,.4-1.45,.07-.32,.11-.64,.13-.94l.1-1.47c.02-.33,.03-.69,0-1.06-.02-.35-.14-.9-.35-1.64-.21-.74-.53-1.36-.97-1.9-.44-.53-1.12-1.01-2.07-1.44-.95-.43-2.1-.64-3.44-.64h-5.52c-.29,0-.58,.25-.6,.56l-1.26,18.61c-.02,.36,.24,.57,.53,.57h1.91c.29,0,.58-.25,.6-.57l.29-4.32h3.05c.64-.02,1.12-.03,1.42-.08l1.7,4.49Zm-17.28-18.85c-.09-.29-.26-.44-.54-.43h-3.52c-.26-.02-.45,.14-.58,.43l-7.05,18.76c-.02,.36,.24,.57,.53,.57h1.98c.28,0,.5-.18,.67-.57l.91-2.39,1.95-5.16,3.14-8.34,2.28,9.36,.03,.11,.1,.41h0l.7,2.91h0l.32,1.36v.06s.41,1.68,.41,1.68c.12,.39,.32,.57,.59,.57h1.98c.29,0,.57-.25,.59-.57l-4.49-18.76Zm-22.63,15.5c.23,0,.42-.12,.56-.37l4.89-8.66-.83,12.29c-.02,.36,.24,.57,.53,.57h1.92c.29,0,.57-.25,.59-.57l1.26-18.61c.02-.36-.22-.57-.51-.57h-1.76c-.36,0-.63,.18-.82,.57l-6.52,11.43-4.97-11.43c-.14-.39-.38-.57-.74-.57H1.87c-.29,0-.58,.25-.6,.57L0,54.37c-.02,.36,.24,.57,.53,.57h1.91c.29,0,.58-.25,.6-.57l.83-12.29,3.71,8.66c.09,.25,.27,.37,.5,.37h1.94Z"/>
      <path class="cls-2" d="M120.71,66.87l1.98,7.57h-4.97l2.99-7.57Zm1.06-.96c-.03-.15-.1-.23-.22-.22h-1.51c-.12,0-.2,.07-.25,.22l-4.88,12.34c-.01,.15,.07,.23,.21,.23h.81c.11,0,.19-.08,.27-.23l1.05-2.63h5.74l.67,2.63c.06,.15,.13,.23,.24,.23h.81c.15,0,.24-.08,.25-.23l-3.2-12.34Z"/>
      <path class="cls-2" d="M132.87,66.87c2.26,0,3.32,1.07,3.17,3.22l-.03,.49c-.08,1.16-.55,2.04-1.06,2.48-.26,.22-.56,.39-.92,.51-.71,.26-1.12,.28-1.64,.28h-2.5l.47-6.98h2.5Zm-3.41-1.18c-.17,0-.26,.08-.26,.24l-.83,12.3c-.02,.17,.05,.25,.22,.25h.75c.17,0,.25-.08,.26-.25l.22-3.2h2.54c.45,0,.82-.03,1.13-.08l1.28,3.3c.06,.15,.14,.23,.25,.23h.8c.15,0,.23-.08,.24-.23l-1.38-3.65c1.06-.46,1.83-1.28,2.13-2.12,.15-.42,.25-.73,.3-.96,.04-.22,.08-.43,.09-.64l.07-.99c0-.14,.02-.28,.02-.43,0-.28-.09-.95-.28-1.47-.18-.52-.61-1.18-1.21-1.59-.61-.39-1.62-.72-2.84-.72h-3.53Z"/>
      <path class="cls-2" d="M143.95,77.35c-.49-.08-1.23-.37-1.69-.84-.45-.46-.79-1.4-.72-2.56l.25-3.73c.08-1.16,.55-2.09,1.06-2.57,.27-.23,.57-.42,.91-.56,.69-.28,1.14-.34,1.65-.34s.97,.06,1.61,.34c.31,.15,.59,.34,.82,.56,.45,.48,.79,1.41,.72,2.57l-.25,3.73c-.04,.59-.16,1.1-.36,1.55-.42,.9-.92,1.31-1.6,1.58-.99,.42-1.63,.39-2.41,.28m-.7-11.36c-.64,.28-1.12,.6-1.44,.95-.32,.36-.58,.79-.79,1.31-.2,.51-.33,.9-.37,1.15-.04,.26-.07,.52-.09,.81l-.27,3.92c-.02,.25-.02,.47-.02,.7,0,.23,.07,.58,.19,1.06,.12,.47,.29,.88,.52,1.21,.23,.33,.62,.65,1.16,.94,.55,.3,1.19,.47,1.95,.52l.73,1.83c.06,.15,.14,.22,.25,.22h.81c.15,0,.22-.07,.23-.22l-.75-1.85c.61-.07,1.16-.2,1.64-.41,.96-.4,1.47-1.09,1.87-1.68,.2-.3,.34-.63,.42-.98,.08-.36,.14-.63,.17-.8,.03-.17,.05-.36,.07-.54l.27-3.92c.02-.29,.03-.55,.02-.81,0-.25-.06-.64-.2-1.15-.13-.51-.34-.95-.61-1.31-.27-.35-.71-.66-1.32-.95-.6-.29-1.35-.43-2.21-.43s-1.62,.14-2.26,.43Z"/>
      <path class="cls-2" d="M160.09,78.21c.65-.26,1.16-.62,1.52-1.07,.71-.9,1.01-1.81,1.09-2.92l.56-8.28c.01-.16-.06-.24-.23-.24h-.75c-.16,0-.25,.07-.26,.24l-.55,8.09c-.08,1.18-.56,2.08-1.06,2.54-.27,.23-.57,.42-.91,.54-.71,.28-1.13,.32-1.65,.32s-.95-.04-1.61-.32c-.33-.13-.6-.32-.84-.54-.45-.46-.8-1.38-.72-2.54l.55-8.09c.01-.16-.06-.24-.23-.24h-.75c-.16,0-.24,.07-.26,.24l-.56,8.28c-.08,1.11,.11,2.02,.69,2.92,.3,.46,.75,.81,1.37,1.07,.62,.26,1.37,.39,2.26,.39s1.66-.13,2.32-.39"/>
      <path class="cls-2" d="M168.61,65.93c.01-.17-.06-.25-.23-.24h-.75c-.16,0-.24,.07-.26,.24l-.83,12.29c-.02,.17,.05,.25,.22,.25h.75c.17,0,.25-.08,.26-.25l.83-12.29Z"/>
      <path class="cls-2" d="M172.37,65.69c-.17,0-.25,.08-.26,.24l-.05,.69c-.01,.17,.06,.25,.23,.25h3.25l-.77,11.36c-.02,.17,.05,.25,.22,.25h.76c.16,0,.24-.08,.25-.25l.77-11.36h3.25c.17,0,.25-.08,.26-.25l.05-.69c.01-.16-.06-.24-.23-.24h-7.73Z"/>
      <path class="cls-2" d="M184.09,65.69c-.17,0-.26,.08-.26,.24l-.84,12.3c-.02,.17,.05,.25,.22,.25h6.75c.17,0,.25-.08,.26-.25l.05-.68c.01-.17-.06-.25-.23-.25h-5.76l.31-4.53h4.73c.16,0,.24-.08,.25-.25l.05-.69c.02-.16-.05-.24-.22-.24h-4.73l.32-4.73h5.76c.17,0,.25-.08,.26-.25l.05-.69c.01-.16-.06-.24-.23-.24h-6.75Z"/>
      <path class="cls-2" d="M194.83,65.69c-.17,0-.25,.08-.26,.24l-.05,.69c-.01,.17,.06,.25,.23,.25h3.25l-.77,11.36c-.02,.17,.05,.25,.22,.25h.76c.16,0,.24-.08,.25-.25l.77-11.36h3.25c.17,0,.25-.08,.26-.25l.05-.69c.01-.16-.06-.24-.23-.24h-7.73Z"/>
      <path class="cls-2" d="M208.99,77.35c-.49-.08-1.23-.37-1.69-.84-.45-.46-.79-1.4-.72-2.56l.25-3.73c.08-1.16,.55-2.09,1.06-2.57,.27-.23,.57-.42,.91-.56,.69-.28,1.14-.34,1.65-.34s.97,.06,1.61,.34c.31,.15,.59,.34,.82,.56,.45,.48,.79,1.41,.72,2.57l-.25,3.73c-.04,.59-.16,1.1-.36,1.55-.42,.9-.92,1.31-1.6,1.58-.99,.42-1.63,.39-2.41,.28m-.7-11.36c-.64,.28-1.12,.6-1.44,.95-.32,.36-.58,.79-.79,1.31-.2,.51-.33,.9-.37,1.15-.04,.26-.07,.52-.09,.81l-.27,3.92c-.02,.26-.02,.5-.02,.74,0,.25,.08,.62,.21,1.11,.14,.5,.34,.91,.61,1.26,.27,.35,.71,.66,1.32,.93,.6,.28,1.34,.42,2.2,.42s1.63-.14,2.27-.42c.64-.28,1.12-.59,1.44-.93,.32-.34,.58-.76,.79-1.26,.2-.49,.32-.86,.35-1.11,.04-.24,.06-.48,.08-.74l.27-3.92c.02-.29,.03-.55,.02-.81,0-.25-.06-.64-.2-1.15-.13-.51-.34-.95-.61-1.31-.27-.35-.71-.66-1.32-.95-.6-.29-1.35-.43-2.21-.43s-1.62,.14-2.26,.43Z"/>
      <path class="cls-1" d="M290.61,70.02l-16.13-16.04-16.24,16.22,16.11,16.1,16.25-16.28Zm-50.15-50.39V84.86l32.46-32.64-.79-.78-31.67-31.82Zm40.85,27.38c-.16,.08-.33,.12-.51,.12-.62,0-1.13-.5-1.13-1.12,0-.34,.15-.66,.41-.87l28.68-28.73c.24-.31,.83-.39,1.18-.32,.48,.1,.77,.46,.84,.94v.03s0,70.07,0,70.07l17.18,17.26c.27,.21,.42,.54,.42,.88,0,.62-.5,1.13-1.13,1.13-.2,0-.39-.05-.56-.15l-.03,.03-.2-.2s-.02-.02-.03-.03l-17.5-17.58h-.41v-.41l-16.36-16.44-16.68,16.72c-.71,.71-1.68,.83-2.36,.03l-16.49-16.56-16.25,16.29c-.59,.63-1.84,.75-2.13-.13h-.06V17.37l-15.33-15.4s-.07-.07-.1-.1h0s-.01-.02-.01-.02c-.17-.2-.26-.46-.26-.72,0-.62,.5-1.13,1.13-1.13,.34,0,.66,.15,.87,.41l84.05,84.45v-30.79h.08v-3.34h-.08V19.79l-27.2,27.26-.04-.04Z"/>
    </g>
  </g>
</svg>